<?xml version="1.0" encoding="UTF-8"?>
<svg width="17px" height="17px" viewBox="0 0 17 17" version="1.1" xmlns="http://www.w3.org/2000/svg" xmlns:xlink="http://www.w3.org/1999/xlink">
    <!-- Generator: Sketch 50.2 (55047) - http://www.bohemiancoding.com/sketch -->
    <title>Shape</title>
    <desc>Created with Sketch.</desc>
    <defs></defs>
    <g id="Symbols" stroke="none" stroke-width="1" fill="none" fill-rule="evenodd">
        <g id="footer" transform="translate(-334.000000, -134.000000)" fill="#FFFFFF" fill-rule="nonzero">
            <g id="Shape">
                <path d="M342.5,134 C337.80558,134 334,137.80558 334,142.5 C334,147.19442 337.80558,151 342.5,151 C347.19442,151 351,147.19442 351,142.5 C351,140.24566 350.104467,138.083652 348.510408,136.489592 C346.916348,134.895533 344.75434,134 342.5,134 Z M338.2687,139.797 C338.300151,139.646104 338.368485,139.505347 338.4676,139.3873 C338.57969,139.246625 338.750133,139.165164 338.93,139.1663 C339.4298,139.1663 339.9296,139.1663 340.4294,139.1663 L345.9595,139.1663 C346.339081,139.15291 346.670507,139.421242 346.7364,139.7953 L346.7364,139.8157 C346.770364,140.096346 346.699537,140.379654 346.5375,140.6113 C346.358057,140.880725 346.126925,141.111857 345.8575,141.2913 C345.0704,141.82 344.285,142.3691 343.5047,142.9182 C343.288265,143.08634 343.054628,143.23108 342.8077,143.35 C342.608566,143.445141 342.376335,143.441365 342.1804,143.3398 C341.964662,143.225723 341.755773,143.099141 341.5548,142.9607 C340.886133,142.507367 340.220867,142.045533 339.559,141.5752 C339.252368,141.386468 338.967334,141.164712 338.709,140.9139 C338.519909,140.728418 338.377719,140.500563 338.2942,140.2492 C338.250034,140.102609 338.241294,139.947627 338.2687,139.797 Z M345.9697,145.8422 C343.989767,145.8422 342.009833,145.8422 340.0299,145.8422 L339.0218,145.8422 C338.815752,145.840852 338.618679,145.757704 338.473938,145.61105 C338.329196,145.464395 338.248643,145.266248 338.25,145.0602 C338.25,144.2102 338.25,143.3449 338.25,142.4864 C338.25,142.1005 338.25,141.7146 338.249983,141.2964 C338.5985,141.6823 339.0303,141.9101 339.4247,142.1872 C340.0962,142.6632 340.7711,143.1324 341.4443,143.6067 C341.652899,143.753048 341.882062,143.86763 342.1243,143.9467 C342.371741,144.023644 342.637218,144.020072 342.8825,143.9365 C343.144517,143.849197 343.391191,143.721271 343.6135,143.5574 C344.4873,142.9454 345.3679,142.3402 346.2417,141.7265 C346.4117,141.6058 346.5681,141.4647 346.7381,141.327 C346.7381,141.497 346.7381,141.684 346.7381,141.8642 C346.7381,142.9301 346.7296,143.996 346.7381,145.0602 C346.73196,145.484267 346.393594,145.828622 345.9697,145.8422 Z"></path>
            </g>
        </g>
    </g>
</svg>