<?xml version="1.0" encoding="UTF-8"?>
<svg width="23px" height="21px" viewBox="0 0 23 21" version="1.1" xmlns="http://www.w3.org/2000/svg" xmlns:xlink="http://www.w3.org/1999/xlink">
    <!-- Generator: Sketch 50.2 (55047) - http://www.bohemiancoding.com/sketch -->
    <title>Linkedin</title>
    <desc>Created with Sketch.</desc>
    <defs></defs>
    <g id="Symbols" stroke="none" stroke-width="1" fill="none" fill-rule="evenodd" opacity="0.411439732">
        <g id="footer" transform="translate(-1520.000000, -86.000000)" fill="#FFFFFF">
            <g id="Linkedin">
                <path d="M1520.57983,92.7340768 L1525.06262,92.7340768 L1525.06262,107 L1520.57983,107 L1520.57983,92.7340768 Z M1537.31079,92.5969406 C1540.49675,92.5969406 1543,94.6489742 1543,99.0680165 L1543,107 L1537.91681,107 L1537.91681,99.6178137 C1537.91681,97.6853829 1537.12188,96.3666209 1535.37303,96.3666209 C1534.03567,96.3666209 1533.29187,97.2564408 1532.94584,98.1143249 C1532.81616,98.4224117 1532.83611,98.8513538 1532.83611,99.2802958 L1532.83611,107 L1527.8003,107 C1527.8003,107 1527.86514,93.9232168 1527.8003,92.7340768 L1532.83611,92.7340768 L1532.83611,94.9733421 C1533.13351,93.9939766 1534.74269,92.5969406 1537.31079,92.5969406 Z M1522.7383,86 C1524.39238,86 1525.40927,87.0651539 1525.44169,88.4728352 C1525.44169,89.8554687 1524.39238,90.9500537 1522.70713,90.9500537 L1522.67471,90.9500537 C1521.05243,90.9500537 1520,89.8592259 1520,88.4765923 C1520,87.0676586 1521.08298,86 1522.7383,86 Z"></path>
            </g>
        </g>
    </g>
</svg>