<?xml version="1.0" encoding="UTF-8"?>
<svg width="17px" height="17px" viewBox="0 0 17 17" version="1.1" xmlns="http://www.w3.org/2000/svg" xmlns:xlink="http://www.w3.org/1999/xlink">
    <!-- Generator: Sketch 50.2 (55047) - http://www.bohemiancoding.com/sketch -->
    <title>noun_call_1794467</title>
    <desc>Created with Sketch.</desc>
    <defs></defs>
    <g id="Symbols" stroke="none" stroke-width="1" fill="none" fill-rule="evenodd">
        <g id="footer" transform="translate(-334.000000, -107.000000)" fill="#FFFFFF" fill-rule="nonzero">
            <g id="noun_call_1794467">
                <g transform="translate(334.000000, 107.000000)">
                    <g id="Group">
                        <g id="Shape">
                            <path d="M12.7489375,10.8935469 C12.5282031,12.2811719 11.6250781,12.7064375 11.5868281,12.7239688 C11.5210531,12.7541253 11.4463528,12.758486 11.3775156,12.7361875 C11.3172187,12.7162656 11.2380625,12.6950156 11.1416406,12.6681875 C9.89214062,12.3223438 6.09051562,11.2702031 4.26115625,5.59485938 C4.24484166,5.54423164 4.2429105,5.4900673 4.25557813,5.43840625 C4.26460938,5.40121875 4.4954375,4.50871875 6.02915625,4.25425 C6.086,4.24442188 6.14496875,4.25185938 6.19782812,4.27682813 C6.253875,4.30232813 7.58226562,4.92707813 7.69303125,6.20048438 C7.70073437,6.2815 7.67284375,6.36278125 7.61785937,6.42254688 C7.1825,6.89429688 6.80398437,7.47442188 6.82417187,7.63964063 C6.85896875,7.93342188 7.78121875,9.4828125 9.43260937,10.2900469 C9.67884375,10.2512656 10.2496719,9.87514063 10.6629844,9.522125 C10.7336406,9.46182813 10.8276719,9.43765625 10.9190469,9.46129688 C12.2291094,9.77898438 12.7013906,10.6778594 12.7210469,10.7161094 C12.7489375,10.7705625 12.7587656,10.83325 12.7489375,10.8935469 Z M8.5,0 C3.80560937,0 0,3.80560937 0,8.5 C0,13.1943906 3.80560937,17 8.5,17 C13.1943906,17 17,13.1943906 17,8.5 C17,3.80560937 13.1943906,0 8.5,0 Z"></path>
                        </g>
                    </g>
                </g>
            </g>
        </g>
    </g>
</svg>